#!OML:ASF X:\für Bonn\!DataBase\2005_08_12_Daniel\c3d\Daniel.ASF
:FULLY-SPECIFIED
:DEGREES
129
root 0.89588 13.1236 -0.636365 42.6843 -87.0845 -58.1848
lowerback 47.0122 -3.92226 6.19806
upperback 4.43115 -2.89619 -1.21419
thorax -17.0218 -1.98141 -2.93438
lowerneck 8.40141 1.5971 -2.10065
upperneck -3.43278 1.80291 -1.46272
head -2.55382 0.971083 -0.191012
rclavicle 4.96962e-016 9.54166e-015
rhumerus 64.523 -1.78154 -105.053
rradius 9.57337
rwrist 68.4978
rhand -20.6803 10.6056
rfingers 7.12502
rthumb 5.68303 -19.2982
lclavicle 4.96962e-016 9.54166e-015
lhumerus 67.7755 7.98205 111.334
lradius 9.11387
lwrist -90.8755
lhand -19.3573 0.359441
lfingers 7.12502
lthumb 6.96025 30.225
rfemur -43.1445 -20.692 7.60625
rtibia 102.211
rfoot -6.60659 13.043
rtoes -12.4425
lfemur -45.2413 21.558 -4.60746
ltibia 101.29
lfoot -18.8011 -17.3935
ltoes -1.21364
130
root 0.875545 13.3108 -0.632864 43.1156 -87.0736 -58.4466
lowerback 46.5143 -3.87579 6.1878
upperback 4.38007 -2.85114 -1.18417
thorax -16.939 -1.95505 -2.93411
lowerneck 8.31496 1.56468 -2.07836
upperneck -3.23894 1.76391 -1.51563
head -2.47155 0.95 -0.207731
rclavicle -1.97791e-014 2.18663e-015
rhumerus 64.4257 -1.76062 -105.147
rradius 9.5581
rwrist 68.443
rhand -20.4729 10.3881
rfingers 7.12502
rthumb 5.88331 -19.5102
lclavicle -1.97791e-014 2.18663e-015
lhumerus 67.6732 7.89135 111.295
lradius 9.10067
lwrist -90.8583
lhand -19.1625 0.495709
lfingers 7.12502
lthumb 7.14829 30.355
rfemur -41.9633 -19.9221 7.96365
rtibia 100.262
rfoot -6.39248 12.4066
rtoes -12.2345
lfemur -44.0594 20.8133 -4.85856
ltibia 99.3803
lfoot -18.5956 -16.8356
ltoes -1.06786
131
root 0.853816 13.4991 -0.629834 43.6796 -87.068 -58.855
lowerback 46.0255 -3.8272 6.15492
upperback 4.33302 -2.81413 -1.14765
thorax -16.851 -1.93073 -2.91032
lowerneck 8.16174 1.54641 -2.08041
upperneck -2.99629 1.74613 -1.53352
head -2.36151 0.93773 -0.209116
rclavicle 2.51463e-014 -3.97569e-015
rhumerus 64.2987 -1.7276 -105.241
rradius 9.56356
rwrist 68.3594
rhand -20.3424 10.2107
rfingers 7.12502
rthumb 6.00926 -19.6841
lclavicle 2.51463e-014 -3.97569e-015
lhumerus 67.5701 7.8253 111.254
lradius 9.10604
lwrist -90.8123
lhand -18.9867 0.650507
lfingers 7.12502
lthumb 7.31798 30.504
rfemur -40.7279 -19.1961 8.30918
rtibia 98.2683
rfoot -6.22355 11.8084
rtoes -11.9394
lfemur -42.8295 20.0436 -5.09774
ltibia 97.4316
lfoot -18.3952 -16.2725
ltoes -0.910661
132
root 0.830774 13.6864 -0.626475 44.2589 -87.0396 -59.2853
lowerback 45.5329 -3.78935 6.14835
upperback 4.26741 -2.77316 -1.10139
thorax -16.7815 -1.906 -2.891
lowerneck 8.04952 1.527 -2.08774
upperneck -2.75677 1.72385 -1.56892
head -2.26048 0.923798 -0.215424
rclavicle -4.96962e-015 -9.93923e-016
rhumerus 63.9971 -1.74378 -105.304
rradius 9.74261
rwrist 68.1707
rhand -20.2569 10.1064
rfingers 7.12502
rthumb 6.09177 -19.786
lclavicle -4.96962e-015 -9.93923e-016
lhumerus 67.3748 7.80114 111.212
lradius 9.16331
lwrist -90.7016
lhand -18.8129 0.786089
lfingers 7.12502
lthumb 7.48578 30.6336
rfemur -39.4636 -18.5392 8.65411
rtibia 96.2509
rfoot -6.09912 11.2194
rtoes -11.823
lfemur -41.5901 19.2613 -5.31896
ltibia 95.4686
lfoot -18.2295 -15.69
ltoes -0.839532
133
root 0.8057 13.8703 -0.623392 45.0288 -87.0234 -59.9106
lowerback 45.0248 -3.74223 6.1177
upperback 4.20028 -2.73302 -1.05277
thorax -16.7061 -1.88 -2.85664
lowerneck 7.89137 1.52655 -2.13846
upperneck -2.45034 1.72844 -1.53613
head -2.1304 0.920509 -0.193014
rclavicle 5.96354e-016 1.37161e-014
rhumerus 63.6551 -1.7344 -105.38
rradius 9.9448
rwrist 67.9821
rhand -20.1829 10.04
rfingers 7.12502
rthumb 6.16322 -19.8504
lclavicle 5.96354e-016 1.37161e-014
lhumerus 67.177 7.80152 111.161
lradius 9.20514
lwrist -90.5625
lhand -18.6767 0.926406
lfingers 7.12502
lthumb 7.61725 30.7692
rfemur -38.179 -17.9073 8.98627
rtibia 94.2144
rfoot -5.99913 10.6672
rtoes -11.643
lfemur -40.3322 18.5192 -5.53138
ltibia 93.4965
lfoot -18.1053 -15.0943
ltoes -0.756604
134
root 0.77811 14.0505 -0.620849 45.7653 -87.0083 -60.5027
lowerback 44.4497 -3.69014 6.10299
upperback 4.14178 -2.686 -1.02161
thorax -16.5977 -1.85155 -2.85576
lowerneck 7.80534 1.51129 -2.11735
upperneck -2.11871 1.7163 -1.54192
head -2.0047 0.908913 -0.194987
rclavicle -8.34896e-015 2.78299e-015
rhumerus 63.3761 -1.75212 -105.476
rradius 10.0031
rwrist 67.8017
rhand -20.1802 9.91451
rfingers 7.12502
rthumb 6.16583 -19.9758
lclavicle -8.34896e-015 2.78299e-015
lhumerus 66.9344 7.78952 111.085
lradius 9.2642
lwrist -90.2908
lhand -18.4273 1.05981
lfingers 7.12502
lthumb 7.85793 30.8938
rfemur -36.8909 -17.3346 9.29137
rtibia 92.1802
rfoot -5.93012 10.1474
rtoes -11.5494
lfemur -39.066 17.8005 -5.74457
ltibia 91.5244
lfoot -18.0247 -14.475
ltoes -0.757879
135
root 0.74967 14.2267 -0.618587 46.6465 -86.9922 -61.234
lowerback 43.7925 -3.62917 6.06633
upperback 4.11416 -2.64236 -0.96952
thorax -16.4204 -1.8218 -2.82084
lowerneck 7.72803 1.51358 -2.17783
upperneck -1.81964 1.72013 -1.51217
head -1.8931 0.905427 -0.172874
rclavicle -2.48978e-014 9.54166e-015
rhumerus 63.1673 -1.61632 -105.374
rradius 9.98023
rwrist 67.3823
rhand -20.158 9.79199
rfingers 7.12502
rthumb 6.18727 -20.0977
lclavicle -2.48978e-014 9.54166e-015
lhumerus 66.7448 7.7852 111.037
lradius 9.3344
lwrist -90.0007
lhand -18.1758 1.16361
lfingers 7.12502
lthumb 8.10069 30.9884
rfemur -35.6039 -16.7782 9.59429
rtibia 90.1415
rfoot -5.85463 9.66235
rtoes -11.2817
lfemur -37.81 17.114 -5.94951
ltibia 89.5673
lfoot -18.0069 -13.8369
ltoes -0.879096
